<?xml version="1.0" encoding="UTF-8"?>
<svg width="115px" height="71px" viewBox="0 0 115 71" version="1.1" xmlns="http://www.w3.org/2000/svg" xmlns:xlink="http://www.w3.org/1999/xlink">
    <!-- Generator: Sketch 42 (36781) - http://www.bohemiancoding.com/sketch -->
    <title>noun_777341_cc</title>
    <desc>Created with Sketch.</desc>
    <defs></defs>
    <g id="Page-1" stroke="none" stroke-width="1" fill="none" fill-rule="evenodd">
        <g id="noun_777341_cc" fill-rule="nonzero" fill="#000000">
            <g id="Group">
                <g id="Shape">
                    <path d="M96.9875,27.2875 L14.9046875,27.2875 C7.04375,27.2875 0.6453125,34.405 0.6453125,43.165 C0.6453125,51.7425 6.8609375,58.86 14.5390625,59.0425 C14.5390625,59.59 14.35625,59.955 14.35625,60.5025 C14.35625,65.9775 18.378125,70.54 23.3140625,70.54 L88.578125,70.54 C93.5140625,70.54 97.5359375,65.9775 97.5359375,60.5025 C97.5359375,59.955 97.5359375,59.59 97.353125,59.0425 C105.03125,58.86 111.246875,51.7425 111.246875,43.165 C111.429687,34.405 105.03125,27.2875 96.9875,27.2875 Z M25.8734375,61.5975 C22.4,61.5975 19.475,58.6775 19.475,55.21 C19.475,51.7425 22.4,48.8225 25.8734375,48.8225 C29.346875,48.8225 32.271875,51.7425 32.271875,55.21 C32.271875,58.6775 29.346875,61.5975 25.8734375,61.5975 Z M45.9828125,61.5975 C42.509375,61.5975 39.584375,58.6775 39.584375,55.21 C39.584375,51.7425 42.509375,48.8225 45.9828125,48.8225 C49.45625,48.8225 52.38125,51.7425 52.38125,55.21 C52.38125,58.6775 49.45625,61.5975 45.9828125,61.5975 Z M66.0921875,61.5975 C62.61875,61.5975 59.69375,58.6775 59.69375,55.21 C59.69375,51.7425 62.61875,48.8225 66.0921875,48.8225 C69.565625,48.8225 72.490625,51.7425 72.490625,55.21 C72.3078125,58.6775 69.565625,61.5975 66.0921875,61.5975 Z M86.01875,61.5975 C82.5453125,61.5975 79.6203125,58.6775 79.6203125,55.21 C79.6203125,51.7425 82.5453125,48.8225 86.01875,48.8225 C89.4921875,48.8225 92.4171875,51.7425 92.4171875,55.21 C92.4171875,58.6775 89.675,61.5975 86.01875,61.5975 Z"></path>
                    <path d="M56.5859375,14.1475 C55.1234375,10.8625 51.8328125,8.6725 47.99375,8.6725 L46.165625,8.6725 L46.165625,6.3 C46.165625,3.015 43.60625,0.46 40.4984375,0.46 L20.3890625,0.46 L20.3890625,8.855 C16.184375,9.95 13.259375,13.7825 13.259375,18.345 L13.259375,21.63 L57.6828125,21.63 L57.6828125,18.71 L114.5375,18.71 L114.5375,14.33 L56.5859375,14.33 L56.5859375,14.1475 Z"></path>
                </g>
            </g>
        </g>
    </g>
</svg>