<?xml version="1.0" encoding="UTF-8"?>
<svg width="90px" height="88px" viewBox="0 0 90 88" version="1.1" xmlns="http://www.w3.org/2000/svg" xmlns:xlink="http://www.w3.org/1999/xlink">
    <!-- Generator: Sketch 42 (36781) - http://www.bohemiancoding.com/sketch -->
    <title>noun_680871_cc</title>
    <desc>Created with Sketch.</desc>
    <defs></defs>
    <g id="Page-1" stroke="none" stroke-width="1" fill="none" fill-rule="evenodd">
        <g id="noun_680871_cc" fill-rule="nonzero" fill="#000000">
            <g id="Artboard-13">
                <path d="M45,28.5392282 C48.0820023,28.5392282 50.8605308,26.6748118 52.039962,23.8153534 C53.2193933,20.9558949 52.5674584,17.6645159 50.3881537,15.4759812 C48.2088489,13.2874465 44.9313511,12.6327505 42.0839522,13.8171769 C39.2365534,15.0016034 37.38,17.7918998 37.38,20.8869553 C37.3693623,22.9243394 38.1671632,24.8820883 39.5970563,26.3274597 C41.0269494,27.772831 42.9711822,28.5867977 45,28.58944 L45,28.5392282 Z M33.23,51.9680376 C33.4666722,54.0353086 34.8442129,55.7917285 36.79,56.5071812 L39.95,85.6300047 C40.092747,86.9019068 41.1654466,87.8623401 42.44,87.8594071 L47.44,87.8594071 C48.7107347,87.857227 49.7776794,86.8980943 49.92,85.6300047 L53.07,56.5674353 C55.079933,55.888356 56.51791,54.1038176 56.76,51.9881224 L58.64,37.7882353 C58.8449562,35.9559168 58.2625934,34.1227216 57.0388721,32.7481128 C55.8151508,31.373504 54.0660661,30.587779 52.23,30.5878682 L49.59,30.5878682 C49.2730113,30.6234402 48.9736869,30.7527647 48.73,30.9594353 L46.73,32.7168471 C45.7554749,33.5483946 44.3245251,33.5483946 43.35,32.7168471 L41.35,30.9594353 C41.1059953,30.7532812 40.8068337,30.624027 40.49,30.5878682 L37.77,30.5878682 C35.9339339,30.587779 34.1848492,31.373504 32.9611279,32.7481128 C31.7374066,34.1227216 31.1550438,35.9559168 31.36,37.7882353 L33.23,51.9680376 Z M75.52,28.58944 C78.6020023,28.58944 81.3805308,26.7250236 82.559962,23.8655651 C83.7393933,21.0061067 83.0874584,17.7147277 80.9081537,15.526193 C78.7288489,13.3376582 75.4513511,12.6829623 72.6039522,13.8673887 C69.7565534,15.0518152 67.9,17.8421116 67.9,20.9371671 C67.905509,25.161107 71.3138742,28.5839077 75.52,28.58944 Z M61.88,37.7882353 L63.75,51.9479529 C63.9866722,54.0152239 65.3642129,55.7716438 67.31,56.4870965 L70.47,85.60992 C70.6190193,86.8932679 71.7136311,87.8534804 73,87.82928 L78,87.82928 C79.2707347,87.8270999 80.3376794,86.8679673 80.48,85.5998776 L83.6,56.5473506 C85.609933,55.8682713 87.04791,54.0837329 87.29,51.9680376 L89.16,37.7882353 C89.3649562,35.9559168 88.7825934,34.1227216 87.5588721,32.7481128 C86.3351508,31.373504 84.5860661,30.587779 82.75,30.5878682 L80.11,30.5878682 C79.7930113,30.6234402 79.4936869,30.7527647 79.25,30.9594353 L77.25,32.7168471 C76.2754749,33.5483946 74.8445251,33.5483946 73.87,32.7168471 L71.87,30.9594353 C71.6259953,30.7532812 71.3268337,30.624027 71.01,30.5878682 L68.29,30.5878682 C66.4539339,30.587779 64.7048492,31.373504 63.4811279,32.7481128 C62.2574066,34.1227216 61.6750438,35.9559168 61.88,37.7882353 Z M14.48,28.5693553 C18.6884098,28.5693553 22.1,25.143316 22.1,20.9170824 C22.1,16.6908487 18.6884098,13.2648094 14.48,13.2648094 C10.2715902,13.2648094 6.86,16.6908487 6.86,20.9170824 C6.8573461,22.9492553 7.65867469,24.8992542 9.08770227,26.3381007 C10.5167298,27.7769473 12.4563976,28.5867783 14.48,28.58944 L14.48,28.5693553 Z M0.84,37.7882353 L2.71,51.9479529 C2.94667216,54.0152239 4.3242129,55.7716438 6.27,56.4870965 L9.43,85.60992 C9.57274701,86.8818221 10.6454466,87.8422554 11.92,87.8393224 L16.92,87.8393224 C18.1907347,87.8371423 19.2576794,86.8780096 19.4,85.60992 L22.55,56.5473506 C24.559933,55.8682713 25.99791,54.0837329 26.24,51.9680376 L28.12,37.7882353 C28.3249562,35.9559168 27.7425934,34.1227216 26.5188721,32.7481128 C25.2951508,31.373504 23.5460661,30.587779 21.71,30.5878682 L19.07,30.5878682 C18.7530113,30.6234402 18.4536869,30.7527647 18.21,30.9594353 L16.21,32.7168471 C15.2354749,33.5483946 13.8045251,33.5483946 12.83,32.7168471 L10.83,30.9594353 C10.5859953,30.7532812 10.2868337,30.624027 9.97,30.5878682 L7.24,30.5878682 C5.40567715,30.5906348 3.65929358,31.3775954 2.43779391,32.7518526 C1.21629424,34.1261098 0.63523608,35.9576547 0.84,37.7882353 Z M37.36,8.16329412 C37.36,3.93706047 33.9484098,0.511021176 29.74,0.511021176 C25.5315902,0.511021176 22.12,3.93706047 22.12,8.16329412 C22.12,12.3895278 25.5315902,15.8155671 29.74,15.8155671 C31.7609497,15.8155671 33.6991265,15.0093478 35.1281537,13.5742682 C36.5571809,12.1391887 37.36,10.1928031 37.36,8.16329412 Z M60.26,0.511021176 C56.0515902,0.511021176 52.64,3.93706047 52.64,8.16329412 C52.64,12.3895278 56.0515902,15.8155671 60.26,15.8155671 C64.4684098,15.8155671 67.88,12.3895278 67.88,8.16329412 C67.88,3.93706047 64.4684098,0.511021176 60.26,0.511021176 L60.26,0.511021176 Z" id="Shape"></path>
            </g>
        </g>
    </g>
</svg>