<?xml version="1.0" encoding="UTF-8"?>
<svg width="90px" height="90px" viewBox="0 0 90 90" version="1.1" xmlns="http://www.w3.org/2000/svg" xmlns:xlink="http://www.w3.org/1999/xlink">
    <!-- Generator: Sketch 42 (36781) - http://www.bohemiancoding.com/sketch -->
    <title>noun_33429_cc</title>
    <desc>Created with Sketch.</desc>
    <defs></defs>
    <g id="Page-1" stroke="none" stroke-width="1" fill="none" fill-rule="evenodd">
        <g id="noun_33429_cc" fill-rule="nonzero" fill="#000000">
            <path d="M90,45.001 C90,69.854 69.852,90 45,90 C20.146,90 0,69.854 0,45.001 C0,20.148 20.146,0 45,0 C69.852,0 90,20.148 90,45.001 Z M52.561,45.001 C52.561,40.824 49.177,37.44 45,37.44 C40.823,37.44 37.439,40.825 37.439,45.001 C37.439,49.177 40.824,52.56 45,52.56 C49.176,52.56 52.561,49.177 52.561,45.001 Z M18.093,40.645 C20.497,40.645 22.448,42.595 22.448,45 L22.448,45 C22.448,47.406 20.497,49.356 18.093,49.356 L11.866,49.323 C13.779,64.309 25.649,76.126 40.63,78.054 L40.644,71.918 C40.644,69.51 42.594,67.562 44.999,67.562 L44.999,67.562 C47.407,67.562 49.355,69.512 49.355,71.918 L49.334,78.036 C64.291,76.1 76.067,64.308 77.983,49.352 L71.909,49.356 C69.501,49.356 67.553,47.406 67.553,45 L67.553,45 C67.553,42.595 69.503,40.645 71.909,40.645 L77.965,40.649 C76.045,25.744 64.227,13.96 49.352,11.964 L49.356,18.093 C49.356,20.498 47.406,22.448 45,22.448 L45,22.448 C42.595,22.448 40.645,20.498 40.645,18.093 L40.649,11.947 C25.672,13.842 13.838,25.669 11.884,40.625 L18.093,40.645 Z" id="Shape"></path>
        </g>
    </g>
</svg>