<?xml version="1.0" encoding="UTF-8"?>
<svg width="66px" height="91px" viewBox="0 0 66 91" version="1.1" xmlns="http://www.w3.org/2000/svg" xmlns:xlink="http://www.w3.org/1999/xlink">
    <!-- Generator: Sketch 42 (36781) - http://www.bohemiancoding.com/sketch -->
    <title>noun_831855_cc</title>
    <desc>Created with Sketch.</desc>
    <defs></defs>
    <g id="Page-1" stroke="none" stroke-width="1" fill="none" fill-rule="evenodd">
        <g id="noun_831855_cc" fill-rule="nonzero" fill="#000000">
            <g id="Artboard-11">
                <path d="M41.3508333,36.0966667 C45.7508333,38.8542424 51.3791667,36.0966667 51.3791667,36.0966667 L56.5308333,39.5252525 C58.481905,40.7733048 61.0715067,40.2112941 62.3333333,38.2659596 L64.6433333,34.239899 C65.8242025,32.4387374 65.4648516,30.0351447 63.8091667,28.660404 L51.8375,18.6687879 L51.0858333,15.9112121 C50.6810907,14.4295014 49.6492696,13.1999986 48.2625,12.5469697 L40.2141667,8.76909091 L41.1308333,2.02222222 C41.1359082,1.69294336 40.993995,1.37861354 40.7438952,1.1651763 C40.4937954,0.951739046 40.1616719,0.861521916 39.8383333,0.919191919 C34.7966667,1.93030303 32.2758333,6.14939394 31.0383333,9.55959596 C6.50833333,17.6392929 5.5,43.6616162 10.0375,58.8282828 L5.09666667,58.8282828 C2.7072851,58.9368264 0.825779743,60.9109221 0.825779743,63.3093434 C0.825779743,65.7077647 2.7072851,67.6818604 5.09666667,67.790404 L9.16666667,67.790404 C9.16666667,67.9466667 9.075,68.0937374 9.05666667,68.2591919 C8.81333597,69.9512325 7.74386802,71.4098537 6.20583333,72.1473737 L5.64666667,72.4139394 C4.27328948,73.0782574 3.39796803,74.469785 3.39166667,75.9987879 L3.39166667,85.5767677 C3.39671291,88.5698377 5.8151527,90.9949399 8.8,91 L57.1083333,91 C60.0931806,90.9949399 62.5116204,88.5698377 62.5166667,85.5767677 L62.5166667,76.0079798 C62.5103653,74.4789769 61.6350438,73.0874493 60.2616667,72.4231313 L59.7025,72.1565657 C58.1549317,71.4220131 57.0775514,69.958538 56.8333333,68.2591919 C56.8333333,68.1029293 56.76,67.9466667 56.7233333,67.790404 L59.5833333,67.790404 C61.2281476,67.8651238 62.7809337,67.0277566 63.6256076,65.6105364 C64.4702816,64.1933162 64.4702816,62.4253707 63.6256076,61.0081505 C62.7809337,59.5909303 61.2281476,58.753563 59.5833333,58.8282828 L53.2491667,58.8282828 C51.92,53.8738384 49.1058333,50.6934343 43.4225,46.0607071 C36.41,40.3341414 41.3508333,36.0966667 41.3508333,36.0966667 Z M49.5,71.4947475 C50.3882116,74.2868391 52.1864129,76.6985993 54.6058333,78.3427273 L54.6058333,83.039798 L11.3575,83.039798 L11.3575,78.3519192 C13.7917627,76.7109839 15.6034395,74.295237 16.5,71.4947475 L49.5,71.4947475 Z" id="Shape"></path>
            </g>
        </g>
    </g>
</svg>